# xmcd CD database file generated by Grip 3.2.0
# 
# Track frame offsets:
#       150
#       19390
#       34248
#       53183
#       77436
#       98367
#       111845
#       128924
#       144016
#       172416
#       186503
#       214741
#       227471
#       250724
#       261479
#       281862
#       299150
# 
# Disc length: 4245 seconds
# 
# Revision: 1
# Processed by: cddbd v1.5.2PL0 Copyright (c) Steve Scherf et al.
# Submitted via: Grip 3.2.0
# 
DISCID=01109311
DTITLE=Cheo Feliciano - Salsa Caliente De Nu York!
DYEAR=2000
DGENRE=Salsa
TTITLE0=Nabori
TTITLE1=Quinto Sabroso
TTITLE2=Anacaona
TTITLE3=Por Mas Que Viva
TTITLE4=Salome
TTITLE5=Mano Caliente
TTITLE6=El Raton
TTITLE7=Si Por Mi Llueve
TTITLE8=Brinda Por Mi
TTITLE9=Guanguanco Te Decido
TTITLE10=Periodico De Siempre
TTITLE11=Nina
TTITLE12=Salsaludando
TTITLE13=No Coman Cuento
TTITLE14=Busca Lo Tuyo
TTITLE15=Hacere Furo
TTITLE16=Armonioso Cantar
EXTD=YEAR: 2000
EXTT0=
EXTT1=
EXTT2=
EXTT3=
EXTT4=
EXTT5=
EXTT6=
EXTT7=
EXTT8=
EXTT9=
EXTT10=
EXTT11=
EXTT12=
EXTT13=
EXTT14=
EXTT15=
EXTT16=
PLAYORDER=
